<?xml version="1.0" encoding="utf-8"?><!DOCTYPE svg PUBLIC "-//W3C//DTD SVG 1.1//EN" "http://www.w3.org/Graphics/SVG/1.1/DTD/svg11.dtd"><svg xmlns="http://www.w3.org/2000/svg" width="1024" height="1024" viewBox="0 0 31 31" shape-rendering="crispEdges"><path fill="#FFFFFF" d="M0 0h31v31H0z"/><path stroke="#071F24" d="M3 3.5h7m4 0h2m1 0h1m1 0h1m1 0h7M3 4.5h1m5 0h1m1 0h3m3 0h3m1 0h1m5 0h1M3 5.5h1m1 0h3m1 0h1m2 0h1m1 0h2m1 0h1m1 0h1m1 0h1m1 0h3m1 0h1M3 6.5h1m1 0h3m1 0h1m3 0h1m2 0h1m1 0h1m2 0h1m1 0h3m1 0h1M3 7.5h1m1 0h3m1 0h1m2 0h4m1 0h1m1 0h1m1 0h1m1 0h3m1 0h1M3 8.5h1m5 0h1m1 0h1m3 0h1m2 0h2m1 0h1m5 0h1M3 9.5h7m1 0h1m1 0h1m1 0h1m1 0h1m1 0h1m1 0h7M11 10.5h1m1 0h1m1 0h1m2 0h2M7 11.5h4m1 0h2m2 0h4m1 0h2m3 0h1M3 12.5h2m1 0h1m3 0h1m1 0h2m1 0h1m7 0h2M3 13.5h5m1 0h1m1 0h3m1 0h2m2 0h1m1 0h1m3 0h1M15 14.5h2m1 0h3m1 0h2m1 0h3M3 15.5h3m1 0h1m1 0h1m1 0h1m2 0h2m1 0h6m1 0h2m1 0h1M3 16.5h2m9 0h1m2 0h1m5 0h1M5 17.5h5m1 0h1m1 0h1m3 0h2m3 0h3M5 18.5h3m3 0h4m3 0h2m2 0h2m1 0h1M3 19.5h3m1 0h3m2 0h1m1 0h2m1 0h1m1 0h5m1 0h2M11 20.5h1m1 0h4m2 0h1m3 0h2m1 0h1M3 21.5h7m1 0h1m1 0h7m1 0h1m1 0h1m2 0h1M3 22.5h1m5 0h1m1 0h2m1 0h1m1 0h1m2 0h1m3 0h1m1 0h2M3 23.5h1m1 0h3m1 0h1m1 0h3m1 0h2m1 0h9M3 24.5h1m1 0h3m1 0h1m2 0h1m1 0h4m1 0h4m1 0h1m2 0h1M3 25.5h1m1 0h3m1 0h1m4 0h1m6 0h2m1 0h3M3 26.5h1m5 0h1m3 0h1m3 0h3m3 0h1m1 0h2M3 27.5h7m2 0h1m3 0h2m3 0h7"/></svg>
