<?xml version="1.0" encoding="utf-8"?><!DOCTYPE svg PUBLIC "-//W3C//DTD SVG 1.1//EN" "http://www.w3.org/Graphics/SVG/1.1/DTD/svg11.dtd"><svg xmlns="http://www.w3.org/2000/svg" width="1024" height="1024" viewBox="0 0 27 27" shape-rendering="crispEdges"><path fill="#FFFFFF" d="M0 0h27v27H0z"/><path stroke="#071F24" d="M3 3.5h7m1 0h2m2 0h1m1 0h7M3 4.5h1m5 0h1m1 0h3m1 0h1m1 0h1m5 0h1M3 5.5h1m1 0h3m1 0h1m1 0h4m2 0h1m1 0h3m1 0h1M3 6.5h1m1 0h3m1 0h1m3 0h1m3 0h1m1 0h3m1 0h1M3 7.5h1m1 0h3m1 0h1m2 0h1m1 0h2m1 0h1m1 0h3m1 0h1M3 8.5h1m5 0h1m1 0h1m5 0h1m5 0h1M3 9.5h7m1 0h1m1 0h1m1 0h1m1 0h7M11 10.5h1m1 0h2M5 11.5h3m1 0h1m1 0h2m1 0h1m1 0h3m2 0h3M6 12.5h3m3 0h1m2 0h3m2 0h1m2 0h1M3 13.5h2m1 0h1m2 0h2m1 0h2m1 0h1m2 0h1m1 0h3M3 14.5h1m1 0h1m1 0h2m1 0h3m1 0h3m3 0h3M3 15.5h1m1 0h5m2 0h2m1 0h1m2 0h1m3 0h2M11 16.5h2m1 0h1m2 0h2m2 0h3M3 17.5h7m2 0h1m3 0h2m1 0h3M3 18.5h1m5 0h1m3 0h1m1 0h2m1 0h5M3 19.5h1m1 0h3m1 0h1m1 0h3m2 0h1m2 0h2m1 0h1M3 20.5h1m1 0h3m1 0h1m1 0h1m1 0h1m1 0h4m2 0h1M3 21.5h1m1 0h3m1 0h1m1 0h5m1 0h2M3 22.5h1m5 0h1m2 0h1m1 0h2m1 0h1m2 0h2M3 23.5h7m2 0h1m1 0h1m7 0h1"/></svg>
